<svg width="149.103" height="258.896" viewBox="0 0 39.45 68.5" xml:space="preserve" xmlns="http://www.w3.org/2000/svg"><path d="M18.154 68.44c-3.473-.289-6.867-1.73-9.72-4.126-.974-.818-2.71-2.592-3.5-3.575C2.027 57.115.408 53.037.048 48.427c-.308-3.936.879-8.476 3.084-11.797 1.502-2.261 3.63-4.346 6.13-6.005 1.023-.679 1.254-.922 1.16-1.221-.033-.102-.287-.533-.566-.956a12.8 12.8 0 0 1-1.819-4.37c-.117-.552-.153-1.095-.153-2.328 0-1.565.01-1.658.364-3.387.523-2.548.946-3.94 1.981-6.52 1.293-3.222 3.835-7.926 5.208-9.635C16.577.79 18.13 0 19.779 0c.678 0 .92.04 1.534.257 1.432.502 2.41 1.352 3.528 3.065 2.28 3.494 4.444 8.08 5.66 11.993.382 1.231 1.028 4.408 1.126 5.536.224 2.58-.498 5.339-1.987 7.591-.638.965-.686 1.087-.524 1.333.072.11.578.498 1.125.862 4.633 3.086 7.62 7.234 8.71 12.097.383 1.704.493 2.693.499 4.458.01 3.424-.79 6.633-2.445 9.807-1.13 2.166-2.317 3.744-4.35 5.78-2.339 2.34-4.053 3.528-6.526 4.523-2.354.946-5.27 1.363-7.975 1.138m2.37-3.047c1.909-1.607 3.343-4.207 3.874-7.025.209-1.106.21-3.288.003-4.445-.335-1.875-1.224-3.968-2.285-5.38-.597-.794-2.182-2.367-2.384-2.367-.256 0-2.108 1.956-2.69 2.84a12.87 12.87 0 0 0-1.491 11.145c.483 1.478 1.344 3.023 2.323 4.167.562.657 1.65 1.573 1.868 1.574.096 0 .448-.228.781-.509zm-5.336-1.327a15.2 15.2 0 0 1-2.03-5.12c-.166-.826-.193-1.218-.193-2.822s.027-1.996.194-2.822c.278-1.38.7-2.607 1.329-3.866 1.11-2.226 2.334-3.606 5.08-5.736.211-.164.185-.182 2.135 1.466 2.27 1.918 3.9 4.76 4.61 8.037.17.786.192 1.124.192 2.921s-.022 2.135-.192 2.921c-.41 1.892-1.128 3.652-2.099 5.147-.536.825-.412.803.503-.088.67-.654 1.626-2.024 2.18-3.124.773-1.534 1.334-3.738 1.41-5.533.189-4.524-1.679-8.914-5.208-12.239-.95-.895-2.714-2.254-3.029-2.333-.354-.089-.807.03-1.217.317-3.952 2.776-6.468 6.358-7.332 10.436-.572 2.702-.466 4.992.35 7.516.505 1.562 1.14 2.78 2.146 4.115.404.535 1.516 1.628 1.657 1.628.017 0-.202-.37-.486-.82m-5.064-3.97c-.985-2.855-1.18-6.108-.536-9 .554-2.492 1.825-5.154 3.42-7.164 1.36-1.715 3.487-3.555 5.665-4.902 1.085-.671 1.135-.666 2.568.284 3.984 2.64 6.387 5.453 7.882 9.233 1.358 3.43 1.517 7.236.453 10.837a37 37 0 0 1-.351 1.143c-.16.428.313-.318.716-1.127 1.136-2.285 1.672-4.929 1.583-7.802-.077-2.486-.564-4.468-1.638-6.669-1.694-3.471-4.25-5.917-8.921-8.538-1.184-.664-1.254-.66-2.625.109-2.924 1.641-5.277 3.465-6.616 5.129-2.514 3.122-3.798 6.692-3.798 10.555 0 2.487.612 5.218 1.62 7.224.358.714.68 1.26.719 1.221.018-.018-.046-.257-.14-.533m-2.803-.987c-.872-2.324-1.342-4.749-1.342-6.922 0-4.031 1.516-8.275 4.165-11.658 1.339-1.709 3.615-3.68 5.673-4.911.482-.289.966-.62 1.075-.736q.41-.433-.262-.877c-.307-.203-.435-.233-.993-.232-.749 0-1.152.173-2.472 1.057-4.299 2.877-7.143 6.942-8.072 11.536-.747 3.688-.316 7.615 1.225 11.166.304.702 1.156 2.275 1.231 2.275.019 0-.084-.314-.228-.698m25.494-.868c2.367-4.744 2.573-10.422.55-15.159-1.48-3.464-4.258-6.596-7.689-8.667-1.078-.651-1.697-.804-2.43-.6-.33.091-.842.54-.842.738 0 .21.513.63 1.473 1.209 1.344.81 2.56 1.755 3.792 2.95 1.64 1.587 2.857 3.246 3.831 5.22 1.253 2.538 1.87 4.928 1.97 7.624q.142 3.901-1.404 7.828c-.176.448-.177.458-.013.254.094-.117.437-.745.762-1.397M3.043 53.068c-.008-.088-.056-.533-.106-.989-.291-2.675.023-5.702.852-8.21 1.323-4 3.765-7.294 7.352-9.917 1.455-1.064 1.781-1.388 1.781-1.77 0-.225-.056-.346-.223-.477-.266-.21-.504-.219-1.177-.046-.96.245-3.175 1.901-4.826 3.607-2.63 2.717-4.112 5.782-4.62 9.556-.153 1.127-.13 3.888.04 4.996.198 1.282.741 3.482.851 3.443.05-.018.085-.105.076-.193m33.793-.69c.584-2.326.782-4.041.693-5.99-.176-3.859-1.371-7.1-3.67-9.948-1.193-1.478-4.053-3.953-5.245-4.539a4.4 4.4 0 0 0-.994-.31c-.513-.088-.575-.082-.79.078-.31.23-.342.584-.09.959.107.158.6.576 1.093.928 1.311.934 2.038 1.542 3.044 2.544 2.955 2.942 4.768 6.427 5.552 10.67.167.904.218 4.428.084 5.778-.102 1.03.042.954.323-.17M21.892 32.296c1.167-.65 2.46-1.412 2.874-1.696 2.416-1.654 4.06-3.855 4.73-6.328.207-.767.223-.953.222-2.521 0-1.502-.027-1.818-.228-2.794-.42-2.046-1.14-4.161-2.488-7.321-1.61-3.77-4.078-7.99-5.38-9.195-.714-.661-1.457-1.007-2.02-.94-1.041.123-1.993.98-3.311 2.978-1.797 2.723-3.043 5.18-4.554 8.974-.954 2.395-1.552 4.382-1.872 6.223-.15.86-.15 3.267 0 4.022.27 1.356.883 2.73 1.771 3.965.65.904 2.085 2.266 3.108 2.95.649.435 4.894 2.864 5.004 2.864.012 0 .977-.531 2.144-1.18m-6.153-10.783c-.42-.233-1.46-1.915-1.759-2.84-.29-.903.062-1.621.795-1.621.456 0 .712.235.94.864a7.5 7.5 0 0 0 .968 1.872c.477.697.528.89.342 1.282-.233.49-.83.696-1.286.443m6.95-.17c-.448-.41-.43-.773.075-1.498.446-.641.828-1.384 1.033-2.01q.257-.781.867-.783c.603 0 .976.394.975 1.032 0 .325-.363 1.278-.72 1.889-.392.672-.983 1.471-1.157 1.565-.331.177-.75.1-1.073-.195"/></svg>